<svg width="100" height="100" viewBox="0 0 100 100" fill="none" xmlns="http://www.w3.org/2000/svg">
<path d="M99.7777 68.7067C99.7777 63.1779 95.4592 58.6771 90.1576 58.6771C89.9273 58.6771 89.7033 58.7192 89.4793 58.7322C90.4314 56.3845 90.9541 53.7709 90.9541 50.9012C90.9541 44.205 82.7402 28.8445 77.3794 23.7665C74.4424 24.4247 71.3186 24.7814 68.0797 24.7814C64.7382 24.7814 61.5336 24.402 58.5156 23.7049C53.2201 28.1635 43.9453 43.9975 43.9453 50.9044C43.9453 52.0685 44.048 53.1775 44.2316 54.2346C42.6324 54.1211 41.0052 54.0563 39.3468 54.0563C35.0563 54.0563 30.9245 54.5394 27.0167 55.4312C26.9016 53.9493 26.8207 53.0446 26.8207 53.0446H1.33913C1.33913 53.0446 0.222168 62.7726 0.222168 74.7607C0.222168 86.7489 1.33913 96.4704 1.33913 96.4704H26.8176C26.8176 96.4704 27.0416 93.9314 27.2843 90.3288C31.077 89.6641 34.9599 90.7082 39.4433 93.6136C45.1308 97.4789 52.1374 99.778 59.7228 99.778C67.4139 99.778 74.0192 97.4141 79.5107 93.4385L79.5169 93.445C79.5822 93.3964 79.6445 93.3477 79.7285 93.2699C81.2841 92.1285 82.7558 90.8671 84.1279 89.4825C85.2044 88.3346 86.6636 86.8656 88.8508 84.6347C96.1966 77.1117 97.102 75.6233 97.102 75.6233C97.102 75.6233 97.0864 75.6233 97.074 75.6233C98.7448 73.8301 99.7777 71.3981 99.7777 68.7067ZM93.9316 72.6336C92.6435 73.9631 87.1987 79.8161 85.7177 81.3272C81.897 85.2346 80.1143 87.0667 79.2804 88.0784L79.2587 88.0622C78.6737 88.6102 78.0608 89.0998 77.4354 89.5798C72.5071 93.0527 66.3685 95.1345 59.7197 95.1345C53.0055 95.1345 46.8202 93.0267 41.8732 89.4987H41.8421C37.5578 86.7813 32.5393 85.1081 27.5737 85.6172C27.7728 82.0438 27.9315 78.1299 27.9315 74.7672C27.9315 70.0881 27.6203 64.355 27.3372 59.9482C31.1112 59.063 35.1466 58.5668 39.3375 58.5668C52.1467 58.5668 63.4812 62.9801 70.4226 69.8967C71.2408 70.8468 71.7573 72.0953 71.7573 73.4702C71.7573 76.434 69.4425 78.8465 66.5988 78.8465C66.4992 78.8465 66.3965 78.8141 66.2783 78.8076L66.2659 78.866C63.6119 78.7719 59.4583 77.6111 52.4454 74.8126L50.8524 79.1708C58.2667 82.1086 63.1514 83.4381 66.6143 83.5289V83.4965C70.9546 83.49 74.6166 80.4679 75.8082 76.3594V76.3659C77.3079 73.7685 82.9238 68.3597 86.1129 65.4024V65.4089C86.1502 65.3635 86.1782 65.3408 86.2031 65.3148C86.7911 64.7701 87.3045 64.3031 87.6685 63.9756C88.3437 63.5281 89.0406 63.3433 90.1545 63.3433C92.992 63.3433 95.3068 65.7558 95.3068 68.7196C95.313 70.1951 94.6814 71.5894 93.9316 72.6336Z" fill="#0B82C6"/>
<path d="M59.7324 20.4101C59.7324 20.4101 64.0571 21.4802 68.2947 21.4802C72.5292 21.4802 75.3169 20.8543 75.3169 20.8543C77.778 19.5929 83.3099 6.29473 80.0648 1.60582C76.437 -3.62461 70.3731 7.7442 67.5729 6.57684C64.7851 5.41272 58.8363 -0.651079 54.913 1.81984C51.503 3.96973 57.0504 18.3315 59.7324 20.4101Z" fill="#0B82C6"/>
</svg>