<svg xmlns="http://www.w3.org/2000/svg" width="553.1" height="101.771" style="enable-background:new 0 0 553.1 101.771" xml:space="preserve"><path d="m302.9 33.271-8.2 13.2c-2.1 4.3-5.5 4.4-7.7.3l-8.3-13.5h24.2zm-58.2 35.7c0 3.2-2.7 7.3-7.3 7.3h-75.2s-6.8 0-7.4-7l-.1-58.1h14.7l-.1 46.7c0 3.4 3 3.6 3 3.6h9.8v-6.3s.5-7.2 7.7-7.2c-4.4-1.1-5.6-7.3-5.7-14.9h53.7c3.1 0 6.8 3.3 6.8 7 .1 6.1.1 28.9.1 28.9zm-34.8-20.9h-4.3c-10.2 0-8.5 10-8.5 10 0 3.4 3.3 3.5 3.3 3.5h6.1c2 0 3.4-1.3 3.4-3.7v-9.8zm20 3.1c0-1.8-1.6-3.1-3.3-3.1h-6.2c-1.1 0-2 .4-2.6 1.2-.5.6-.7 1.4-.7 2.4v6.4c0 3.4 3.1 3.6 3.1 3.6h6.3c2 0 3.4-1.3 3.4-3.7v-6.8zm-96.6-17.9v25.2c0 2.4-1.5 3.7-3.4 3.7 0 0-3.1-.2-3.1-3.6v-25.2h-15v25.2c0 2.4-1.5 3.7-3.4 3.7 0 0-3.1-.2-3.1-3.6v-25.2H90.5v25.3c0 2.3-1.5 3.5-3.4 3.5h-8.8s-3.1-.2-3.1-3.6v-25.2H60.4v25.2c0 2.4-1.5 3.7-3.4 3.7H18s-3.1-.2-3.1-3.6v-25.2H.1l-.1 35.8c.6 7 7.4 7 7.4 7h53.9c2.9 0 4.9-1.4 6.1-3.2 2.1 3.2 6.2 3.2 6.2 3.2h10.6c2.9 0 4.9-1.4 6.1-3.2 2.1 3.2 6.2 3.2 6.2 3.2H113.1c2.9 0 4.9-1.4 6.1-3.2 2.1 3.2 6.2 3.2 6.2 3.2h15.4c4.9 0 7.4-3.9 7.4-7.5l.1-35.6h-15zm-106.1 7.1c1.3 1.3 3.4 1.3 4.6 0l4.8-4.8c1.3-1.3 1.3-3.4 0-4.6l-4.8-4.9c-1.3-1.3-3.4-1.3-4.6 0l-4.8 4.8c-1.3 1.3-1.3 3.4 0 4.6l4.8 4.9zm16.2 0c1.3 1.3 3.4 1.3 4.6 0l4.8-4.8c1.3-1.3 1.3-3.4 0-4.6l-4.8-4.9c-1.3-1.3-3.4-1.3-4.6 0l-4.8 4.8c-1.3 1.3-1.3 3.4 0 4.6l4.8 4.9z" style="fill:#fcaf17"/><path d="M427.2 11.371H442v65.1h-14.8v-65.1zm-119.9 21.8v25.2c0 2.4-1.5 3.7-3.4 3.7h-26.4s-3.1-.2-3.1-3.6v-25.2h-14.8v36.2c.6 7 7.4 7 7.4 7h47.8c4.9 0 7.4-3.9 7.4-7.5v-35.7c-.1-.1-14.9-.1-14.9-.1zm80.7 31.5c-1.3 1.3-1.3 3.4 0 4.6l4.8 4.8c1.3 1.3 3.4 1.3 4.6 0l4.8-4.8c1.3-1.3 1.3-3.4 0-4.6l-4.8-4.8c-1.3-1.3-3.4-1.3-4.6 0l-4.8 4.8zm0 16.3c-1.3 1.3-1.3 3.4 0 4.6l4.8 4.8c1.3 1.3 3.4 1.3 4.6 0l4.8-4.8c1.3-1.3 1.3-3.4 0-4.6l-4.8-4.8c-1.3-1.3-3.4-1.3-4.6 0l-4.8 4.8zm-59.3-4.6h14.8v-65.1h-14.8v65.1zm15.6 25.4 48-48c1.9-1.9 3.8-1.7 5.1-.5s23.1 23.2 23.1 23.2v-20.8s-12.7-12.9-20.3-20.5c-4.2-4.2-9-1.4-10.4.1l-66.6 66.6h21.1v-.1z" style="fill:#0082c6"/><g><linearGradient id="a" gradientUnits="userSpaceOnUse" x1="477.48" y1="32.476" x2="531.244" y2="32.476"><stop offset="0" style="stop-color:#fff78f"/><stop offset=".054" style="stop-color:#fff38b"/><stop offset=".11" style="stop-color:#ffeb7f"/><stop offset=".165" style="stop-color:#ffe16c"/><stop offset=".221" style="stop-color:#ffd24d"/><stop offset=".24" style="stop-color:#ffcc40"/><stop offset=".342" style="stop-color:#febe2d"/><stop offset=".463" style="stop-color:#fcb31c"/><stop offset=".563" style="stop-color:#fcaf17"/><stop offset=".837" style="stop-color:#ffcc40"/><stop offset=".858" style="stop-color:#ffd758"/><stop offset=".889" style="stop-color:#ffe471"/><stop offset=".922" style="stop-color:#ffed82"/><stop offset=".958" style="stop-color:#fff38c"/><stop offset="1" style="stop-color:#fff78f"/></linearGradient><path d="M531.243 33.722c.008.604-.021 1.209-.089 1.81a14.967 14.967 0 0 1-4.08 8.665c2.206-3.403 2.84-7.724 1.973-11.685-.867-3.961-3.172-7.547-6.237-10.202-1.767-1.53-3.783-2.762-5.923-3.697a26.524 26.524 0 0 0-3.303-1.187c-1.143-.328-2.252-.665-3.442-.766a18.175 18.175 0 0 0-1.762-.058c-.81.01-1.62.05-2.42.12-.8.07-1.6.17-2.4.29-.79.13-1.58.29-2.36.48-.78.18-1.55.4-2.31.64-.76.23-1.51.5-2.24.79-.74.29-1.46.61-2.16.95a30.041 30.041 0 0 0-5.83 3.66 24.667 24.667 0 0 0-3.17 3.05c-.48.55-.92 1.11-1.33 1.69-.41.58-.79 1.17-1.14 1.78-.34.61-.65 1.23-.92 1.87-.27.64-.51 1.29-.7 1.95-.09.31-.17.63-.23.94a16.18 16.18 0 0 0-.3 1.92c-.03.32-.05.65-.06.97s-.01.65 0 .97.03.65.05.97c.03.32.07.64.11.96.05.32.1.64.17.96.06.31.13.63.22.94a14.507 14.507 0 0 0 .6 1.85c.12.3.25.6.38.9.14.29.28.58.44.87.15.29.31.57.49.85.17.27.35.55.54.81.19.27.38.53.59.79.1.13.2.26.3.38-.06-.03-.11-.07-.16-.11-.32-.23-.62-.48-.92-.72a21.504 21.504 0 0 1-1.68-1.55c-.26-.28-.51-.55-.75-.84a15.026 15.026 0 0 1-1.26-1.68c-.18-.28-.35-.57-.51-.86-.16-.29-.31-.59-.46-.89-.14-.3-.27-.6-.39-.91s-.23-.62-.33-.93c-.1-.32-.19-.64-.27-.95-.09-.32-.16-.65-.22-.97a16.251 16.251 0 0 1-.24-1.95 15.708 15.708 0 0 1 .09-2.91c.04-.32.1-.64.16-.96.06-.31.13-.63.22-.94.08-.31.17-.61.28-.92.1-.3.21-.6.34-.89.28-.64.6-1.27.96-1.88.36-.6.76-1.19 1.19-1.76s.89-1.12 1.39-1.64c.49-.53 1.02-1.04 1.58-1.52.55-.49 1.13-.95 1.74-1.39.61-.44 1.25-.86 1.9-1.26.66-.39 1.34-.76 2.04-1.11.7-.35 1.42-.67 2.15-.96.73-.3 1.49-.57 2.25-.82.76-.24 1.54-.46 2.33-.65.79-.2 1.59-.36 2.39-.5.81-.13 1.62-.24 2.44-.32a33.819 33.819 0 0 1 4.94-.12c.82.05 1.64.12 2.46.22 2.503.344 4.996.597 7.459 1.207 1.718.426 3.407.983 5.018 1.719 3.329 1.521 6.354 3.863 8.254 6.991a14.997 14.997 0 0 1 2.152 7.543z" style="fill:url(#a)"/><linearGradient id="b" gradientUnits="userSpaceOnUse" x1="484.7" y1="50.746" x2="527.13" y2="50.746"><stop offset="0" style="stop-color:#fff78f"/><stop offset=".054" style="stop-color:#fff38b"/><stop offset=".11" style="stop-color:#ffeb7f"/><stop offset=".165" style="stop-color:#ffe16c"/><stop offset=".221" style="stop-color:#ffd24d"/><stop offset=".24" style="stop-color:#ffcc40"/><stop offset=".342" style="stop-color:#febe2d"/><stop offset=".463" style="stop-color:#fcb31c"/><stop offset=".563" style="stop-color:#fcaf17"/><stop offset=".837" style="stop-color:#ffcc40"/><stop offset=".858" style="stop-color:#ffd758"/><stop offset=".889" style="stop-color:#ffe471"/><stop offset=".922" style="stop-color:#ffed82"/><stop offset=".958" style="stop-color:#fff38c"/><stop offset="1" style="stop-color:#fff78f"/></linearGradient><path d="M527.13 44.251c-.04.08-.09.15-.13.23-.36.6-.75 1.19-1.18 1.76-.42.57-.88 1.13-1.36 1.66-.49.54-1 1.05-1.54 1.55s-1.11.98-1.7 1.44a30.125 30.125 0 0 1-3.79 2.48c-.68.37-1.37.71-2.07 1.03-.7.33-1.42.62-2.15.89s-1.48.51-2.23.73a30.087 30.087 0 0 1-4.59.96c-.78.11-1.56.18-2.33.22-.78.04-1.56.05-2.34.03-.78-.02-1.55-.07-2.32-.16a23 23 0 0 1-1.14-.23c-.37-.08-.75-.17-1.12-.27-.37-.1-.73-.2-1.1-.32-.36-.11-.72-.23-1.08-.35-.36-.13-.71-.26-1.06-.4-.35-.14-.69-.29-1.03-.44-.34-.16-.68-.32-1.01-.48-.33-.17-.65-.34-.97-.52-.32-.18-.64-.37-.95-.56s-.61-.39-.91-.6c-.3-.2-.59-.41-.87-.63-.29-.22-.57-.44-.84-.67-.27-.23-.54-.46-.8-.71-.25-.24-.51-.48-.75-.74-.24-.25-.48-.51-.71-.77-.12-.14-.24-.29-.36-.43.26.2.54.39.81.57.33.22.67.43 1.02.64.34.21.7.41 1.06.6.36.19.73.37 1.1.55.37.18.75.35 1.14.51.39.16.78.32 1.18.47.39.14.8.28 1.2.41.41.13.82.26 1.24.37.42.12.84.22 1.26.32.43.1.85.19 1.29.27.43.08.86.15 1.3.21.47.07.94.13 1.41.18.47.05.94.09 1.41.13.47.03.94.05 1.41.07.47.01.94.02 1.41.02a32.346 32.346 0 0 0 2.8-.12c.47-.03.93-.08 1.39-.13.46-.06.92-.12 1.38-.19.46-.07.92-.15 1.37-.23.45-.09.9-.19 1.35-.29.45-.1.89-.22 1.33-.34.45-.12.88-.24 1.32-.38.43-.14.87-.28 1.29-.43.43-.16.85-.32 1.27-.48.42-.17.84-.35 1.25-.53.4-.19.81-.38 1.21-.58.37-.19.74-.38 1.11-.58.36-.2.72-.41 1.07-.63.35-.21.69-.43 1.03-.66.33-.23.66-.46.98-.7.33-.24.64-.48.95-.73.3-.25.6-.51.89-.77.29-.26.58-.52.85-.79s.54-.55.79-.83c.19-.21.38-.42.56-.63z" style="fill:url(#b)"/><linearGradient id="c" gradientUnits="userSpaceOnUse" x1="470.53" y1="31.891" x2="537.334" y2="31.891"><stop offset="0" style="stop-color:#8ed8f8"/><stop offset=".062" style="stop-color:#8ad2f5"/><stop offset=".125" style="stop-color:#7ec7ef"/><stop offset=".189" style="stop-color:#69b7e6"/><stop offset=".253" style="stop-color:#4ca2d9"/><stop offset=".317" style="stop-color:#158acb"/><stop offset=".337" style="stop-color:#0082c6"/><stop offset=".447" style="stop-color:#0077bf"/><stop offset=".552" style="stop-color:#006cb7"/><stop offset=".667" style="stop-color:#0079c0"/><stop offset=".761" style="stop-color:#0082c6"/><stop offset=".788" style="stop-color:#3293d1"/><stop offset=".826" style="stop-color:#57a9de"/><stop offset=".864" style="stop-color:#6fbbe8"/><stop offset=".904" style="stop-color:#80caf0"/><stop offset=".948" style="stop-color:#8bd3f5"/><stop offset="1" style="stop-color:#8ed8f8"/></linearGradient><path d="M537.25 28.481c-.03-.41-.08-.81-.15-1.22-.06-.4-.14-.8-.22-1.2-.09-.4-.19-.8-.3-1.19-.12-.39-.24-.78-.38-1.17-.13-.39-.28-.77-.44-1.15-.16-.38-.33-.75-.52-1.12-.18-.37-.37-.73-.58-1.09-.2-.36-.42-.71-.64-1.06-.23-.34-.47-.68-.71-1.01-.25-.33-.51-.66-.78-.97-.26-.32-.54-.63-.83-.93-.3-.32-.61-.63-.93-.93-.32-.31-.65-.6-.99-.89-.34-.29-.68-.56-1.04-.84-.36-.27-.72-.53-1.09-.78-.38-.26-.76-.5-1.14-.74-.39-.24-.79-.47-1.19-.69-.4-.22-.81-.44-1.23-.64-.41-.21-.84-.4-1.26-.59-.43-.19-.87-.37-1.31-.54-.44-.17-.88-.33-1.33-.48-.45-.15-.9-.3-1.36-.43-.46-.14-.92-.26-1.39-.38-.47-.12-.94-.23-1.41-.33-.47-.09-.95-.18-1.43-.27-.995-.166-1.991-.35-2.988-.497-.931-.137-1.874-.183-2.811-.272l-.111-.011c-1-.09-2.02-.15-3.04-.17-1.01-.01-2.03 0-3.05.06a43.863 43.863 0 0 0-6.05.77c-.99.2-1.98.44-2.95.7-.97.27-1.93.57-2.87.9-.95.34-1.87.7-2.78 1.1-.91.4-1.79.83-2.65 1.28-.87.46-1.7.95-2.51 1.47-.81.51-1.6 1.06-2.35 1.64-.75.57-1.47 1.17-2.15 1.8-.69.63-1.34 1.29-1.95 1.97-.61.68-1.18 1.38-1.71 2.12-.53.73-1.01 1.48-1.45 2.26a21.49 21.49 0 0 0-1.63 3.59c-.13.39-.25.79-.36 1.2-.11.4-.2.81-.29 1.22-.08.41-.15.83-.2 1.24-.05.42-.1.84-.12 1.26-.03.41-.05.83-.05 1.25s.01.85.03 1.27a27.278 27.278 0 0 0 .3 2.51c.08.41.17.83.27 1.24.1.41.21.82.34 1.22.13.41.27.81.42 1.2.15.4.31.79.49 1.18s.36.77.57 1.15a21.06 21.06 0 0 0 1.35 2.18c.28.38.56.76.86 1.12.31.37.62.73.94 1.08.33.35.67.69 1.02 1.03.35.33.71.66 1.08.98s.75.63 1.15.93c.39.3.79.6 1.21.88.41.29.83.57 1.27.84.43.27.87.53 1.32.78.45.25.91.49 1.38.73.46.23.94.45 1.42.67.48.22.97.42 1.47.62.49.2 1 .38 1.51.56.5.18 1.02.35 1.54.51a40.944 40.944 0 0 0 3.19.84c.54.12 1.09.23 1.64.33.58.07 1.16.13 1.75.17.58.05 1.17.09 1.75.11.59.03 1.17.04 1.76.04.58.01 1.17 0 1.76-.02.58-.01 1.17-.04 1.75-.08.58-.04 1.16-.09 1.75-.15.58-.06 1.15-.14 1.73-.22.58-.08 1.15-.17 1.73-.28.57-.1 1.14-.21 1.7-.34.57-.12 1.13-.25 1.69-.4s1.11-.3 1.66-.47c.55-.16 1.1-.34 1.64-.53.54-.18 1.08-.38 1.61-.59.53-.2 1.06-.42 1.58-.65.52-.23 1.03-.47 1.54-.71.51-.25 1.01-.51 1.5-.78.46-.25.91-.51 1.35-.78.44-.26.88-.54 1.3-.82a38.386 38.386 0 0 0 2.47-1.8c.4-.32.78-.64 1.16-.97.37-.33.74-.66 1.1-1.01.36-.34.7-.69 1.04-1.04a29.602 29.602 0 0 0 1.89-2.19c.3-.38.58-.76.85-1.15.27-.38.53-.77.77-1.17.25-.39.48-.79.7-1.19.22-.4.42-.81.62-1.22.19-.41.37-.82.53-1.24.17-.41.32-.83.46-1.25.13-.42.25-.85.36-1.27a16.757 16.757 0 0 0 .43-2.42c.04-.41.07-.82.09-1.22.01-.41.02-.82.01-1.23-.02-.41-.04-.81-.08-1.22zm-2.9 2.44c-.02.39-.06.77-.11 1.15-.04.39-.1.77-.17 1.15s-.16.76-.25 1.13c-.09.38-.2.75-.32 1.12-.26.79-.57 1.56-.93 2.31s-.77 1.48-1.22 2.19c-.44.71-.93 1.41-1.46 2.07-.53.67-1.1 1.32-1.71 1.95-.6.62-1.24 1.22-1.92 1.8-.67.57-1.37 1.13-2.1 1.65-.74.53-1.5 1.03-2.28 1.5-.79.47-1.6.91-2.43 1.33s-1.68.8-2.55 1.16c-.87.36-1.76.68-2.66.98-.9.29-1.82.55-2.74.78a38.717 38.717 0 0 1-5.65.97c-.95.09-1.91.15-2.86.16-.95.02-1.91 0-2.86-.06s-1.89-.15-2.83-.29c-.46-.07-.91-.15-1.36-.23-.45-.09-.9-.19-1.35-.29-.45-.1-.89-.22-1.33-.34s-.88-.25-1.31-.39-.86-.28-1.28-.44c-.43-.15-.85-.31-1.26-.49-.42-.17-.82-.35-1.23-.53-.4-.19-.8-.39-1.19-.59-.39-.2-.78-.41-1.16-.63-.38-.22-.75-.45-1.12-.68-.36-.24-.72-.48-1.07-.73-.36-.24-.7-.5-1.04-.76-.33-.27-.66-.54-.98-.81a25.568 25.568 0 0 1-1.8-1.75c-.28-.31-.56-.62-.82-.94-.24-.3-.48-.61-.7-.92-.23-.31-.44-.63-.64-.96-.21-.32-.4-.66-.59-.99-.18-.34-.35-.68-.52-1.03-.16-.34-.31-.69-.46-1.05a19.465 19.465 0 0 1-.72-2.17c-.1-.36-.19-.73-.27-1.1-.08-.38-.15-.75-.2-1.13-.06-.37-.1-.75-.14-1.12-.03-.38-.05-.76-.06-1.14-.02-.38-.01-.75 0-1.13.01-.38.03-.75.07-1.13.03-.38.08-.75.14-1.12.06-.38.13-.75.21-1.11.08-.37.17-.74.28-1.1.24-.79.53-1.56.86-2.31.34-.76.72-1.5 1.14-2.22.43-.71.9-1.42 1.41-2.1s1.06-1.34 1.64-1.97c.59-.64 1.21-1.26 1.87-1.85.66-.6 1.35-1.17 2.07-1.72.72-.54 1.47-1.06 2.25-1.56s1.58-.97 2.41-1.41 1.68-.85 2.55-1.24c.87-.39 1.76-.74 2.67-1.07.91-.32 1.84-.62 2.77-.88.94-.27 1.9-.5 2.86-.7.96-.19 1.93-.36 2.91-.49s1.96-.22 2.95-.28 1.98-.08 2.97-.06c.98.01 1.94.07 2.92.16.47.08 1 .17 1.47.27s.93.21 1.39.33c.47.12.92.24 1.38.38.45.14.9.28 1.35.43.44.16.88.32 1.32.49.43.17.86.35 1.28.54.43.19.85.38 1.26.59a27.75 27.75 0 0 1 2.39 1.32c.38.23.76.48 1.13.73s.73.51 1.08.78c.35.26.7.54 1.03.82.34.28.67.57.98.87.32.29.63.6.93.91.29.31.58.62.86.95.28.32.54.65.8.99.24.31.48.62.7.94.22.32.43.65.64.98.2.33.39.67.57 1.02.18.34.34.69.5 1.05.16.35.31.71.44 1.07.14.37.26.74.38 1.11.11.37.21.74.3 1.12.1.37.18.75.25 1.14.06.38.12.76.17 1.14.04.39.08.77.1 1.16.02.39.04.77.04 1.16s-.02.77-.04 1.16z" style="fill:url(#c)"/><linearGradient id="d" gradientUnits="userSpaceOnUse" x1="464.038" y1="33.307" x2="544.284" y2="33.307"><stop offset="0" style="stop-color:#fff78f"/><stop offset=".054" style="stop-color:#fff38b"/><stop offset=".11" style="stop-color:#ffeb7f"/><stop offset=".165" style="stop-color:#ffe16c"/><stop offset=".221" style="stop-color:#ffd24d"/><stop offset=".24" style="stop-color:#ffcc40"/><stop offset=".342" style="stop-color:#febe2d"/><stop offset=".463" style="stop-color:#fcb31c"/><stop offset=".563" style="stop-color:#fcaf17"/><stop offset=".837" style="stop-color:#ffcc40"/><stop offset=".858" style="stop-color:#ffd758"/><stop offset=".889" style="stop-color:#ffe471"/><stop offset=".922" style="stop-color:#ffed82"/><stop offset=".958" style="stop-color:#fff38c"/><stop offset="1" style="stop-color:#fff78f"/></linearGradient><path d="M520.27 3.991c-1.89-.51-3.87-.98-5.8-1.29-2.63-.42-5.21-.6-7.88-.61-2.68-.01-5.36.2-8.01.61-4.87.76-9.62 2.21-13.96 4.25a45.085 45.085 0 0 0-6.37 3.63 38.818 38.818 0 0 0-5.14 4.17c-.89.85-1.72 1.74-2.5 2.67 3.08-2.98 6.68-5.56 10.63-7.67 1.4-.91 2.89-1.76 4.43-2.52 1.69-.83 3.44-1.57 5.26-2.2 2.57-.9 5.25-1.61 8-2.08 3.93-.68 7.95-.76 11.98-.46 1.3.1 2.61.21 3.89.48 1.74.36 3.47.72 5.21 1.09.2.06.4.12.59.19.74.18 1.46.36 2.18.57.2.05.39.11.58.18-1.01-.38-2.04-.71-3.09-1.01zm23.99 26.12c-.08-1.83-.37-3.64-.86-5.41a25.27 25.27 0 0 0-1.24-3.48v-.01a25.2 25.2 0 0 0-1.06-2.15 8.15 8.15 0 0 0-.29-.5c-.01 0-.01-.01-.01-.01-.93-1.59-2.04-3.1-3.3-4.48a30.994 30.994 0 0 0-4.89-4.29 37.43 37.43 0 0 0-5.82-3.37l-.33-.15c-1-.46-2.04-.89-3.1-1.26-.19-.07-.38-.13-.58-.18-.72-.21-1.44-.39-2.18-.57l.27.09c.12.04.23.07.34.11.33.11.65.22.96.34.09.03.17.06.26.1h.01c1.3.48 2.55 1.03 3.76 1.64 1.95.98 3.78 2.12 5.44 3.39 1.66 1.28 3.16 2.7 4.46 4.25.59.71 1.14 1.45 1.64 2.22v.01c.45.71.86 1.42 1.23 2.17v.01c.04.09.09.17.13.26.8 1.67 1.39 3.44 1.76 5.24.24 1.16.39 2.34.43 3.51.03.66.03 1.32 0 1.98 0 .07-.01.13-.01.2v.01c-.1 1.76-.43 3.5-.98 5.19a22.615 22.615 0 0 1-1.71 3.88c-1.02 1.89-2.31 3.67-3.81 5.32-.31.34-.63.67-.95.99l-.1.1c-3 3-6.72 5.54-10.87 7.49-4.14 1.94-8.71 3.31-13.4 3.99-1.77.25-3.56.41-5.35.46h-.05c-1.3.03-2.6.01-3.9-.06h-.06c-.04 0-.08-.01-.12-.01-1.57-.1-3.14-.28-4.68-.56-2.25-.3-4.46-.77-6.6-1.4-2.13-.63-4.18-1.42-6.11-2.36-1.08-.53-2.13-1.11-3.13-1.74-.78-.48-1.54-1-2.26-1.55-.02-.02-.05-.04-.07-.06a25.87 25.87 0 0 1-3.66-3.33 20.675 20.675 0 0 1-2.26-2.92c-.53-.8-.99-1.63-1.4-2.48-.43-.9-.8-1.81-1.1-2.75v-.01c-.25-.79-.46-1.59-.62-2.4-.12-.6-.22-1.2-.27-1.81 0 0-.01-.01 0-.01-.15-1.19-.19-2.38-.12-3.57.06-1.22.23-2.44.52-3.63.13-.57.29-1.13.48-1.68.39-1.18.89-2.33 1.47-3.45v-.01c1.26-2.39 2.92-4.62 4.91-6.65 1.8-1.84 3.88-3.52 6.16-5.01 1.4-.91 2.89-1.76 4.43-2.52 1.69-.83 3.44-1.57 5.26-2.2-2.65.78-5.22 1.74-7.66 2.87-1.74.81-3.42 1.7-5.02 2.68a38.818 38.818 0 0 0-5.14 4.17c-.89.85-1.72 1.74-2.5 2.67-2.07 2.47-3.75 5.2-4.91 8.15-.1.27-.2.53-.3.8v.01a25.51 25.51 0 0 0-1.19 5.17c-.01.06-.01.11-.02.17-.22 1.99-.2 4.02.05 6.01.02.18.04.34.08.52v.01c.22 1.59.6 3.15 1.12 4.68.09.28.2.56.3.84.54 1.41 1.2 2.78 1.98 4.09a27.243 27.243 0 0 0 2.46 3.42 32.85 32.85 0 0 0 3.14 3.22l.06.06c.82.72 1.68 1.42 2.58 2.06 1.07.79 2.18 1.52 3.35 2.2 2.16 1.26 4.48 2.34 6.93 3.24 2.44.89 5.01 1.6 7.66 2.1 2.77.32 5.57.42 8.36.31 2.79-.12 5.56-.45 8.29-.99 2.72-.53 5.4-1.28 7.99-2.22 2.58-.94 5.08-2.08 7.46-3.4a43.26 43.26 0 0 0 6.21-4.24c1.87-1.54 3.57-3.21 5.05-4.99.03-.03.06-.07.09-.1.36-.43.7-.86 1.03-1.3 1.08-1.42 2.03-2.9 2.84-4.42.15-.29.3-.58.43-.87.35-.69.65-1.39.92-2.09.42-1.05.76-2.12 1.03-3.19.33-1.31.54-2.62.63-3.95v-.01c.05-.68.06-1.37.05-2.05 0-.18-.01-.37-.02-.55z" style="fill:url(#d)"/><linearGradient id="e" gradientUnits="userSpaceOnUse" x1="459.723" y1="39.002" x2="550.061" y2="39.002"><stop offset="0" style="stop-color:#8ed8f8"/><stop offset=".062" style="stop-color:#8ad2f5"/><stop offset=".125" style="stop-color:#7ec7ef"/><stop offset=".189" style="stop-color:#69b7e6"/><stop offset=".253" style="stop-color:#4ca2d9"/><stop offset=".317" style="stop-color:#158acb"/><stop offset=".337" style="stop-color:#0082c6"/><stop offset=".447" style="stop-color:#0077bf"/><stop offset=".552" style="stop-color:#006cb7"/><stop offset=".667" style="stop-color:#0079c0"/><stop offset=".761" style="stop-color:#0082c6"/><stop offset=".788" style="stop-color:#3293d1"/><stop offset=".826" style="stop-color:#57a9de"/><stop offset=".864" style="stop-color:#6fbbe8"/><stop offset=".904" style="stop-color:#80caf0"/><stop offset=".948" style="stop-color:#8bd3f5"/><stop offset="1" style="stop-color:#8ed8f8"/></linearGradient><path d="M523.36 5.001c-.19-.07-.38-.13-.58-.18-.72-.21-1.44-.39-2.18-.57l.27.09c.12.04.23.07.34.11.33.1.65.21.96.34.09.03.17.06.26.1h.01c.2.05.39.11.58.17 1.17.36 2.31.76 3.44 1.2-1-.46-2.04-.89-3.1-1.26zm26.14 25.85c-.09-.44-.2-.88-.31-1.32-.18-.67-.39-1.36-.6-2.02-.01-.02-.01-.03-.02-.04-.47-.83-.97-1.63-1.52-2.41-.22-.31-.44-.62-.67-.92.33.93.61 1.88.84 2.84v.01c.01.06.03.11.04.17.47 2.05.68 4.16.61 6.25-.01.26-.02.53-.04.79-.06.93-.18 1.86-.36 2.78-.17.87-.39 1.74-.67 2.59-.38 1.19-.84 2.37-1.4 3.51-.36.76-.77 1.52-1.21 2.25l-.27.45c-.92 1.47-1.97 2.89-3.16 4.24-.4.47-.83.93-1.27 1.39-.06.06-.11.11-.17.16a39.716 39.716 0 0 1-5.56 4.69 44.45 44.45 0 0 1-6.76 3.91c-2.5 1.18-5.13 2.15-7.83 2.92s-5.48 1.33-8.3 1.68c-2.81.35-5.65.49-8.48.41-2.83-.08-5.64-.38-8.39-.91-2.68-.32-5.29-.86-7.81-1.58-2.52-.73-4.93-1.64-7.19-2.74-1.25-.61-2.45-1.27-3.6-2a31.86 31.86 0 0 1-2.69-1.84c-.07-.05-.13-.1-.2-.15a31.94 31.94 0 0 1-3.19-2.8c-.61-.61-1.18-1.24-1.72-1.89a24.026 24.026 0 0 1-3.39-5.38c-.04-.08-.07-.15-.1-.23v-.01c-.65-1.44-1.15-2.92-1.5-4.44-.1-.43-.19-.86-.27-1.29-.26-1.41-.39-2.85-.39-4.27 0-.65.02-1.29.07-1.93.07-.98.21-1.95.4-2.92-.7 1.25-1.31 2.54-1.82 3.87-.09.24-.18.47-.26.71-.16.78-.27 1.56-.36 2.34a28.51 28.51 0 0 0-.16 3.58v.01c.01 1.17.1 2.33.24 3.5.1.74.22 1.47.37 2.2.33 1.6.79 3.18 1.38 4.71.08.22.17.43.27.64v.01c.59 1.47 1.31 2.88 2.15 4.23.3.5.63.99.97 1.47.66.92 1.38 1.82 2.15 2.68.86.99 1.79 1.93 2.78 2.83.14.13.28.25.42.38 1.08.95 2.21 1.85 3.41 2.69 1.05.76 2.16 1.47 3.3 2.14 2.43 1.43 5.04 2.66 7.78 3.68 2.4.89 4.89 1.62 7.46 2.17.01 0 .02 0 .03.01.35.08.71.15 1.07.22.41.05.83.1 1.25.13h.01c2.66.27 5.35.34 8.03.24 3.11-.13 6.2-.5 9.25-1.11 3.04-.6 6.03-1.44 8.92-2.51a55.87 55.87 0 0 0 8.34-3.85c2.5-1.43 4.85-3.05 7.01-4.84a45.48 45.48 0 0 0 5.42-5.32c.14-.16.28-.33.42-.49.5-.6.98-1.22 1.44-1.84 1.12-1.52 2.12-3.1 2.98-4.72.02-.04.05-.09.07-.13.49-.95.93-1.91 1.32-2.88.55-1.34 1-2.7 1.34-4.08.16-.69.3-1.38.4-2.07v-.01c.18-1.11.29-2.22.33-3.34.02-.52.03-1.05.02-1.57a28.84 28.84 0 0 0-.65-5.63zm-86.18-3.85c.42-.7.69-1.19.88-1.52.02-.05.05-.11.07-.16-.33.55-.65 1.11-.95 1.68zm58.85-22.21c-.31-.12-.63-.23-.96-.34-.11-.04-.22-.07-.34-.11l-.34-.09c-1.39-.34-2.8-.54-4.21-.78-1.47-.26-2.96-.43-4.44-.56-1.47-.12-2.94-.18-4.41-.19-1.49-.01-2.98.04-4.46.14-1.47.1-2.93.26-4.39.48-2.62.39-5.19.96-7.69 1.69-1.82.63-3.57 1.37-5.26 2.2-1.54.76-3.03 1.61-4.43 2.52.46-.26.93-.5 1.41-.74 4.87-2.45 10.22-4.22 15.74-5.21 1.28-.23 2.56-.42 3.85-.56 1.51-.17 3.03-.28 4.54-.33 1.52-.05 3.03.03 4.54.11.75.04 1.5.08 2.25.18.77.1 1.54.2 2.3.31 1.49.19 2.97.44 4.42.79.37.09.73.18 1.09.28.34.1.72.17 1.05.31-.09-.04-.17-.07-.26-.1zm-57.89 20.52c.01-.02.03-.05.05-.07.02-.05.05-.09.07-.13.06-.12.1-.21.12-.27-.09.15-.17.31-.24.47zm18.99-17.41c-1.74.81-3.42 1.7-5.02 2.68a38.818 38.818 0 0 0-5.14 4.17c-.89.85-1.72 1.74-2.5 2.67 3.08-2.98 6.68-5.56 10.63-7.67 1.4-.91 2.89-1.76 4.43-2.52 1.69-.83 3.44-1.57 5.26-2.2-2.65.78-5.22 1.74-7.66 2.87zm40.09-2.9c-.19-.07-.38-.13-.58-.18-.72-.21-1.44-.39-2.18-.57l.27.09c.12.04.23.07.34.11.33.1.65.21.96.34.09.03.17.06.26.1h.01c.2.05.39.11.58.17 1.17.36 2.31.76 3.44 1.2-1-.46-2.04-.89-3.1-1.26z" style="fill:url(#e)"/><linearGradient id="f" gradientUnits="userSpaceOnUse" x1="460.34" y1="22.981" x2="478.25" y2="22.981"><stop offset="0" style="stop-color:#8ed8f8"/><stop offset=".062" style="stop-color:#8ad2f5"/><stop offset=".125" style="stop-color:#7ec7ef"/><stop offset=".189" style="stop-color:#69b7e6"/><stop offset=".253" style="stop-color:#4ca2d9"/><stop offset=".317" style="stop-color:#158acb"/><stop offset=".337" style="stop-color:#0082c6"/><stop offset=".447" style="stop-color:#0077bf"/><stop offset=".552" style="stop-color:#006cb7"/><stop offset=".667" style="stop-color:#0079c0"/><stop offset=".761" style="stop-color:#0082c6"/><stop offset=".788" style="stop-color:#3293d1"/><stop offset=".826" style="stop-color:#57a9de"/><stop offset=".864" style="stop-color:#6fbbe8"/><stop offset=".904" style="stop-color:#80caf0"/><stop offset=".948" style="stop-color:#8bd3f5"/><stop offset="1" style="stop-color:#8ed8f8"/></linearGradient><path d="M478.25 10.581a38.818 38.818 0 0 0-5.14 4.17c-.89.85-1.72 1.74-2.5 2.67-.29.27-.57.55-.85.83-1.744 1.782-3.349 3.717-4.708 5.81-.389.599-.66 1.279-.962 1.926l-.765 1.633c-.008.017-.018.034-.024.052-.37 1.02-.66 2.06-.88 3.13-.7 1.25-1.31 2.54-1.82 3.87-.09.24-.18.47-.26.71.29-1.53.71-3.05 1.26-4.51a39.005 39.005 0 0 1 1.547-3.525c.571-1.158.882-1.93 1.488-3.07 1.169-2.204 3.04-4.605 4.726-6.453a38.043 38.043 0 0 1 1.53-1.581c2.158-2.112 4.638-4.002 7.358-5.662z" style="fill:url(#f)"/><linearGradient id="g" gradientUnits="userSpaceOnUse" x1="523.36" y1="16.236" x2="548.57" y2="16.236"><stop offset="0" style="stop-color:#8ed8f8"/><stop offset=".062" style="stop-color:#8ad2f5"/><stop offset=".125" style="stop-color:#7ec7ef"/><stop offset=".189" style="stop-color:#69b7e6"/><stop offset=".253" style="stop-color:#4ca2d9"/><stop offset=".317" style="stop-color:#158acb"/><stop offset=".337" style="stop-color:#0082c6"/><stop offset=".447" style="stop-color:#0077bf"/><stop offset=".552" style="stop-color:#006cb7"/><stop offset=".667" style="stop-color:#0079c0"/><stop offset=".761" style="stop-color:#0082c6"/><stop offset=".788" style="stop-color:#3293d1"/><stop offset=".826" style="stop-color:#57a9de"/><stop offset=".864" style="stop-color:#6fbbe8"/><stop offset=".904" style="stop-color:#80caf0"/><stop offset=".948" style="stop-color:#8bd3f5"/><stop offset="1" style="stop-color:#8ed8f8"/></linearGradient><path d="M548.57 27.471c-.47-.83-.97-1.63-1.52-2.41-.22-.31-.44-.62-.67-.92-.36-1-.79-1.99-1.28-2.95a26.696 26.696 0 0 0-.847-1.537 12.99 12.99 0 0 0-1.014-1.487c-.409-.51-.826-1.015-1.245-1.517-.45-.539-.99-1.073-1.499-1.558-1.12-1.07-2.204-2.091-3.454-3.031a43.384 43.384 0 0 0-6.62-4.05c-1.28-.64-2.61-1.22-3.96-1.75-1-.46-2.04-.89-3.1-1.26 2.28.66 4.48 1.49 6.55 2.47 2.26 1.06 4.38 2.3 6.33 3.7a35.45 35.45 0 0 1 3.292 2.699c.512.476 1.009.969 1.489 1.479.683.726 1.304 1.507 1.955 2.261.301.349.592.704.874 1.069a30.659 30.659 0 0 1 2.781 4.302 32.068 32.068 0 0 1 1.938 4.49z" style="fill:url(#g)"/><linearGradient id="h" gradientUnits="userSpaceOnUse" x1="458.738" y1="46.98" x2="552.962" y2="46.98"><stop offset="0" style="stop-color:#fff78f"/><stop offset=".054" style="stop-color:#fff38b"/><stop offset=".11" style="stop-color:#ffeb7f"/><stop offset=".165" style="stop-color:#ffe16c"/><stop offset=".221" style="stop-color:#ffd24d"/><stop offset=".24" style="stop-color:#ffcc40"/><stop offset=".342" style="stop-color:#febe2d"/><stop offset=".463" style="stop-color:#fcb31c"/><stop offset=".563" style="stop-color:#fcaf17"/><stop offset=".837" style="stop-color:#ffcc40"/><stop offset=".858" style="stop-color:#ffd758"/><stop offset=".889" style="stop-color:#ffe471"/><stop offset=".922" style="stop-color:#ffed82"/><stop offset=".958" style="stop-color:#fff38c"/><stop offset="1" style="stop-color:#fff78f"/></linearGradient><path d="M552.96 45.091c.01.76-.01 1.52-.07 2.28-.03.48-.07.95-.13 1.43-.1.9-.25 1.79-.43 2.7-.07.33-.15.64-.23.97a31.99 31.99 0 0 1-1.22 3.78c-.09.24-.19.48-.29.73-.42.99-.89 1.96-1.41 2.93-.19.36-.39.71-.59 1.07-.48.83-.99 1.65-1.54 2.45-.54.79-1.11 1.56-1.72 2.33-.26.35-.54.68-.82 1.02-.91 1.09-1.88 2.14-2.91 3.15l-.08.08c-1 .98-2.06 1.93-3.16 2.84-1.13.93-2.32 1.81-3.55 2.65-1.22.84-2.5 1.63-3.81 2.37a57.974 57.974 0 0 1-13.19 5.39c-1.53.42-3.09.79-4.66 1.09a63.613 63.613 0 0 1-9.52 1.06c-1.59.05-3.19.04-4.78-.03-.94-.04-1.87-.11-2.82-.2-.64-.06-1.29-.13-1.93-.21-.55-.11-1.08-.22-1.63-.34-.02-.01-.03-.01-.04-.01-.94-.21-1.88-.44-2.81-.69-1.47-.41-2.92-.87-4.33-1.4-1.42-.52-2.8-1.09-4.15-1.72-.81-.38-1.61-.78-2.4-1.21-.52-.27-1.01-.55-1.51-.84-1.27-.74-2.48-1.52-3.65-2.36-.81-.58-1.59-1.18-2.36-1.82-.33-.27-.65-.54-.97-.82-.55-.49-1.09-.99-1.61-1.51-.47-.45-.92-.92-1.36-1.4-.93-1.02-1.79-2.08-2.58-3.18-.13-.18-.26-.36-.38-.55a31.9 31.9 0 0 1-1.63-2.68c-.14-.27-.29-.53-.43-.81-.43-.85-.82-1.72-1.17-2.61-.38-.95-.71-1.91-.99-2.89 0-.01-.01-.02-.01-.03-.06-.21-.12-.43-.18-.65-.33-1.21-.58-2.43-.76-3.67-.18-1.23-.29-2.47-.33-3.72 0 0-.3-5.51.25-8.84.11-1.12.3-2.24.55-3.33.19-.85.44-1.68.72-2.51.08-.24.17-.47.26-.71.51-1.33 1.12-2.62 1.83-3.9.49-.9 1.04-1.75 1.63-2.6.42-.61.87-1.2 1.34-1.8 1.1-1.38 2.31-2.69 3.63-3.92.37-.35.75-.7 1.14-1.04 1.57-1.37 3.27-2.65 5.08-3.82 1.84-1.2 3.79-2.29 5.84-3.26.45-.23.91-.44 1.38-.65 2.55-1.13 5.23-2.09 7.99-2.87.91-.25 1.82-.49 2.75-.69 1.89-.45 3.81-.8 5.75-1.06 2.89-.38 5.83-.57 8.76-.54 2.94.03 5.88.27 8.78.75-2.91-.31-5.86-.39-8.8-.25-2.95.15-5.89.51-8.78 1.08-2.89.57-5.74 1.34-8.51 2.31-1.9.66-3.74 1.41-5.55 2.25-.82.37-1.63.77-2.43 1.19a55.01 55.01 0 0 0-7.23 4.47c-.22.16-.43.32-.65.5a47.143 47.143 0 0 0-5.58 4.93c-.25.26-.5.53-.75.8-1.49 1.64-2.85 3.36-4.03 5.17-.07.1-.13.21-.2.31-.75 1.17-1.43 2.38-2.04 3.62-.54 1.12-1.03 2.26-1.45 3.42-.26.74-.49 1.48-.68 2.24-.13.45-.23.9-.33 1.35-.597 2.685-.369 5.236.32 7.92.06.24.13.47.2.71.31 1.09.7 2.16 1.15 3.21.17.38.35.76.54 1.14.31.65.66 1.28 1.03 1.9.35.58.72 1.14 1.12 1.7.27.38.55.76.85 1.13.78.97 1.61 1.9 2.51 2.78l.05.05c.85.83 1.74 1.61 2.69 2.36.08.07.17.13.25.2 1.04.8 2.13 1.56 3.27 2.27.21.13.42.26.63.37.95.58 1.93 1.11 2.94 1.61 1.23.61 2.51 1.17 3.82 1.67 1.32.51 2.67.96 4.05 1.36 1.38.4 2.79.74 4.22 1.03 1.11.22 2.24.41 3.37.57.01 0 .02 0 .03.01l.97.12c.45.08.9.16 1.36.23 1.09.18 2.18.33 3.28.45 1.56.17 3.12.27 4.69.32 1.56.04 3.13.03 4.69-.04s3.12-.21 4.67-.4c1.54-.19 3.08-.44 4.6-.74 1.52-.31 3.03-.68 4.51-1.1 1.49-.42 2.95-.9 4.38-1.44 1.44-.54 2.85-1.13 4.22-1.78 1.3-.61 2.56-1.28 3.79-1.99 1.22-.72 2.4-1.48 3.53-2.29 1.13-.8 2.22-1.65 3.25-2.54.7-.61 1.38-1.24 2.03-1.89.3-.29.6-.59.89-.89.5-.53.99-1.07 1.45-1.62.38-.45.75-.91 1.11-1.37.75-.96 1.43-1.96 2.05-2.98.04-.06.07-.12.11-.18.56-.93 1.07-1.88 1.52-2.85.07-.15.14-.31.21-.46.5-1.13.92-2.28 1.26-3.44.15-.48.27-.97.38-1.45.15-.62.26-1.24.35-1.86.08-.51.14-1.02.18-1.54.06-.61.08-1.22.09-1.83.02-1.238-.065-2.51-.274-3.741-.212-1.251-.596-2.434-1.045-3.617-.374-.983-.8-1.947-1.281-2.882l-.06-.12c-.56-1.11-1.19-2.2-1.88-3.24-.11-.17-.22-.34-.34-.51-.6-.87-1.24-1.71-1.92-2.51-.85-1-1.76-1.96-2.72-2.87l-.42-.39c-.84-.78-1.71-1.52-2.63-2.22-.19-.14-.37-.29-.56-.42-.89-.68-1.81-1.32-2.76-1.92-1.16-.74-2.35-1.43-3.58-2.07-1.24-.64-2.5-1.23-3.8-1.78-1.17-.49-2.37-.93-3.59-1.34-.13-.05-.26-.1-.39-.14-1.35-.44-2.72-.84-4.12-1.18-.25-.06-.5-.12-.76-.17-1.14-.27-2.3-.5-3.47-.7.89.09 1.77.21 2.65.35.52.08 1.03.16 1.54.26.8.14 1.57.31 2.36.49.58.13 1.16.28 1.73.43 1.33.35 2.65.76 3.93 1.22 1.28.45 2.54.96 3.75 1.51 1.22.56 2.4 1.16 3.53 1.8.6.34 1.18.69 1.75 1.07.52.32 1.03.66 1.53 1.01.52.37 1.03.75 1.54 1.15.49.39.97.79 1.44 1.2.94.83 1.83 1.7 2.65 2.61.52.57 1.01 1.16 1.48 1.77.23.3.45.61.67.92.55.78 1.05 1.58 1.52 2.41.01.01.01.02.02.04.09.15.18.31.26.47.54 1.01 1.01 2.06 1.42 3.12.949 2.452 1.506 5.054 1.996 7.631.401 2.111.694 4.204.694 6.359z" style="fill:url(#h)"/><linearGradient id="i" gradientUnits="userSpaceOnUse" x1="459.667" y1="55.186" x2="553.07" y2="55.186"><stop offset="0" style="stop-color:#8ed8f8"/><stop offset=".062" style="stop-color:#8ad2f5"/><stop offset=".125" style="stop-color:#7ec7ef"/><stop offset=".189" style="stop-color:#69b7e6"/><stop offset=".253" style="stop-color:#4ca2d9"/><stop offset=".317" style="stop-color:#158acb"/><stop offset=".337" style="stop-color:#0082c6"/><stop offset=".447" style="stop-color:#0077bf"/><stop offset=".552" style="stop-color:#006cb7"/><stop offset=".667" style="stop-color:#0079c0"/><stop offset=".761" style="stop-color:#0082c6"/><stop offset=".788" style="stop-color:#3293d1"/><stop offset=".826" style="stop-color:#57a9de"/><stop offset=".864" style="stop-color:#6fbbe8"/><stop offset=".904" style="stop-color:#80caf0"/><stop offset=".948" style="stop-color:#8bd3f5"/><stop offset="1" style="stop-color:#8ed8f8"/></linearGradient><path d="m517.3 18.671-.34-.03h-.01c-5.62-.53-11.33-.17-16.87.97a60.2 60.2 0 0 0-10.39 3.13 57.95 57.95 0 0 0-5.64 2.63c-1.54.82-3.03 1.71-4.46 2.68 0 0-.01 0-.01.01a42.985 42.985 0 0 0-4.88 3.68 41.985 41.985 0 0 0-3.61 3.44l-.36.39c-.7.78-1.38 1.58-2.02 2.4v.01a36.295 36.295 0 0 0-3.27 4.96c-.48.88-.93 1.79-1.33 2.71v.01c-.38.86-.71 1.73-1.01 2.61-.44 1.34-.78 2.7-1.02 4.09v.01c-.17.97-.29 1.95-.36 2.93-.01.11-.02.22-.02.34-.14 2.27-.02 4.57.35 6.83.06.39.13.77.21 1.16l.01.01c.18.91.4 1.81.67 2.7-.45-.82-.85-1.67-1.2-2.53a27.71 27.71 0 0 1-1.64-5.68c0-.01-.01-.02-.01-.03l-.15-.96c-.31-2.17-.36-4.38-.13-6.56v-.02l.03-.27c.13-1.1.32-2.2.59-3.28.28-1.14.63-2.25 1.07-3.34a29.935 29.935 0 0 1 2.82-5.41v-.01a33.72 33.72 0 0 1 3.5-4.49v-.01c.71-.78 1.47-1.54 2.26-2.27.18-.17.36-.33.54-.47 1.47-1.34 3.06-2.57 4.74-3.7 2.53-1.72 5.28-3.22 8.19-4.5.41-.18.81-.35 1.23-.51 3.88-1.6 8.02-2.8 12.29-3.54h.01c.95-.17 1.9-.32 2.87-.44 5.58-.71 11.32-.65 16.91.28.01 0 .02 0 .03.01.14.01.27.03.41.06zm33.21 42.82c-.38.78-.79 1.56-1.23 2.32-.38.66-.79 1.32-1.23 1.96a38.238 38.238 0 0 1-3.42 4.31c-.04.04-.07.08-.12.12a43.608 43.608 0 0 1-5.39 4.89c-.2.15-.41.31-.62.46a47.24 47.24 0 0 1-7.3 4.42 54.297 54.297 0 0 1-8.71 3.41c-3.01.9-6.11 1.55-9.26 1.97-3.15.41-6.35.58-9.54.5-2.56-.06-5.12-.28-7.65-.67h-.01c-.61-.09-1.22-.2-1.83-.31-.58-.07-1.16-.15-1.73-.24-.02-.01-.03-.01-.04-.01-2.38-.37-4.7-.91-6.95-1.59-1.91-.57-3.76-1.25-5.53-2.04-.83-.35-1.63-.74-2.42-1.14a41.355 41.355 0 0 1-5.6-3.45c-.43-.32-.86-.65-1.27-.98-.4-.32-.8-.66-1.18-1-1.59-1.4-3.03-2.91-4.28-4.55-.08-.11-.17-.22-.25-.34a25.88 25.88 0 0 1-2.01-3.19c.31 1.04.67 2.07 1.09 3.08.93 2.24 2.12 4.38 3.57 6.35.68.92 1.4 1.8 2.18 2.65 0 .01.01.02.02.03 1 1.09 2.06 2.13 3.2 3.11a38.83 38.83 0 0 0 4.28 3.21c.79.53 1.6 1.03 2.43 1.5.23.13.47.26.7.38a48.44 48.44 0 0 0 7 3.13c1.42.5 2.87.94 4.34 1.32.05.01.1.02.14.03 1.28.33 2.59.61 3.91.84 1.12.16 2.24.29 3.37.37 1.88.16 3.77.22 5.66.18 3.03-.06 6.06-.36 9.04-.89 2.99-.53 5.94-1.29 8.79-2.29 2.85-.99 5.61-2.22 8.24-3.67 2.52-1.4 4.9-3.01 7.08-4.78.48-.39.95-.79 1.41-1.2 1.64-1.44 3.16-2.97 4.53-4.59.27-.32.54-.65.8-.98 1.44-1.79 2.7-3.67 3.76-5.61.21-.38.41-.76.6-1.15.98-1.94 1.75-3.94 2.32-5.99.42-1.54.71-3.1.87-4.67-.02.09-.05.18-.07.27-.42 1.54-.99 3.04-1.69 4.52zm2.38-14.12a27.07 27.07 0 0 0-.73-3.9l-.15-.54v-.01c-.47-1.67-1.1-3.3-1.88-4.87-.16-.32-.33-.64-.5-.96-.54-1-1.15-1.97-1.8-2.89-.69-.96-1.43-1.87-2.23-2.73-.43-.46-.88-.92-1.34-1.36-.93-.88-1.92-1.73-2.97-2.52a37.692 37.692 0 0 0-4.84-3.13c-1.08-.61-2.2-1.17-3.35-1.68h-.01a49.1 49.1 0 0 0-7.63-2.66c-1.56-.41-3.16-.74-4.77-.99-1.12-.2-2.25-.35-3.39-.46a56.562 56.562 0 0 1 8.19 2.11c2.64.9 5.18 2 7.57 3.29.19.1.37.2.56.32 1.15.62 2.26 1.31 3.33 2.04.97.64 1.91 1.33 2.81 2.06.52.42 1.03.85 1.52 1.28v.01c1.04.93 2.02 1.9 2.95 2.93v.01c.37.41.72.83 1.07 1.25.78.96 1.51 1.96 2.17 3.01a30.573 30.573 0 0 1 2.33 4.41s.01 0 0 .01c.7 1.59 1.27 3.24 1.68 4.92.06.23.12.45.17.68.34 1.48.56 2.97.68 4.48v.02c.07.89.1 1.79.09 2.69-.01.84-.06 1.67-.15 2.51.55-2.12.81-4.29.8-6.47-.01-.95-.07-1.91-.18-2.86z" style="fill:url(#i)"/><linearGradient id="j" gradientUnits="userSpaceOnUse" x1="478.84" y1="87.391" x2="539.95" y2="87.391"><stop offset="0" style="stop-color:#fff78f"/><stop offset=".054" style="stop-color:#fff38b"/><stop offset=".11" style="stop-color:#ffeb7f"/><stop offset=".165" style="stop-color:#ffe16c"/><stop offset=".221" style="stop-color:#ffd24d"/><stop offset=".24" style="stop-color:#ffcc40"/><stop offset=".342" style="stop-color:#febe2d"/><stop offset=".463" style="stop-color:#fcb31c"/><stop offset=".563" style="stop-color:#fcaf17"/><stop offset=".837" style="stop-color:#ffcc40"/><stop offset=".858" style="stop-color:#ffd758"/><stop offset=".889" style="stop-color:#ffe471"/><stop offset=".922" style="stop-color:#ffed82"/><stop offset=".958" style="stop-color:#fff38c"/><stop offset="1" style="stop-color:#fff78f"/></linearGradient><path d="M530.6 86.771c3.46-1.78 6.62-3.97 9.35-6.44-3.15 3.28-7.02 6.11-11.31 8.34-9.17 4.78-20.29 6.9-30.74 5.2-5.1-.8-9.98-2.42-14.28-4.76-1.69-.92-3.29-1.95-4.78-3.09.47.28.96.56 1.45.82 4.66 2.5 10.01 4.23 15.61 5.03a56.04 56.04 0 0 0 17.95.22c5.9-.87 11.6-2.67 16.75-5.32z" style="fill:url(#j)"/><linearGradient id="k" gradientUnits="userSpaceOnUse" x1="463.739" y1="57.044" x2="550.66" y2="57.044"><stop offset="0" style="stop-color:#fff78f"/><stop offset=".054" style="stop-color:#fff38b"/><stop offset=".11" style="stop-color:#ffeb7f"/><stop offset=".165" style="stop-color:#ffe16c"/><stop offset=".221" style="stop-color:#ffd24d"/><stop offset=".24" style="stop-color:#ffcc40"/><stop offset=".342" style="stop-color:#febe2d"/><stop offset=".463" style="stop-color:#fcb31c"/><stop offset=".563" style="stop-color:#fcaf17"/><stop offset=".837" style="stop-color:#ffcc40"/><stop offset=".858" style="stop-color:#ffd758"/><stop offset=".889" style="stop-color:#ffe471"/><stop offset=".922" style="stop-color:#ffed82"/><stop offset=".958" style="stop-color:#fff38c"/><stop offset="1" style="stop-color:#fff78f"/></linearGradient><path d="M549.9 64.771c-1.15 4.45-3.55 8.7-6.88 12.46-.95 1.08-1.97 2.11-3.07 3.1 3.59-3.72 6.27-8.03 7.65-12.76 1.2-4.15 1.3-8.57.41-12.82s-2.76-8.33-5.51-11.78c-2.9-3.65-6.67-6.73-11-9.11a44.908 44.908 0 0 0-6.724-3.005c-2.378-.837-4.862-1.569-7.367-1.892-.561-.072-1.126-.109-1.69-.156-1.242-.104-2.46-.189-3.709-.183a51.408 51.408 0 0 0-3.703.152c-2.461.189-4.908.55-7.319 1.074-2.392.52-4.75 1.2-7.051 2.035a52.48 52.48 0 0 0-6.947 3.105c-8.92 4.8-15.89 12.03-18.59 20.68-1.3 4.1-1.53 8.47-.76 12.69.76 4.21 2.51 8.26 5.16 11.71 1.7 2.22 3.74 4.21 6.04 5.95-4.05-2.38-7.49-5.36-10.04-8.85-2.65-3.6-4.28-7.83-4.84-12.15-.56-4.33-.06-8.75 1.54-12.75 3.45-8.6 11.13-15.4 20.56-19.58a53.494 53.494 0 0 1 6.768-2.453 55.41 55.41 0 0 1 14.494-2.164 51.963 51.963 0 0 1 7.366.41c2.616.335 5.245.689 7.825 1.245a47.22 47.22 0 0 1 7.241 2.17c.692.27 1.377.559 2.056.863 4.49 2.01 8.49 4.71 11.69 8.01 2.95 3.2 5.1 7.12 6.24 11.29 1.13 4.159 1.26 8.559.16 12.709z" style="fill:url(#k)"/><linearGradient id="l" gradientUnits="userSpaceOnUse" x1="469.915" y1="65.525" x2="545.403" y2="65.525"><stop offset="0" style="stop-color:#8ed8f8"/><stop offset=".062" style="stop-color:#8ad2f5"/><stop offset=".125" style="stop-color:#7ec7ef"/><stop offset=".189" style="stop-color:#69b7e6"/><stop offset=".253" style="stop-color:#4ca2d9"/><stop offset=".317" style="stop-color:#158acb"/><stop offset=".337" style="stop-color:#0082c6"/><stop offset=".447" style="stop-color:#0077bf"/><stop offset=".552" style="stop-color:#006cb7"/><stop offset=".667" style="stop-color:#0079c0"/><stop offset=".761" style="stop-color:#0082c6"/><stop offset=".788" style="stop-color:#3293d1"/><stop offset=".826" style="stop-color:#57a9de"/><stop offset=".864" style="stop-color:#6fbbe8"/><stop offset=".904" style="stop-color:#80caf0"/><stop offset=".948" style="stop-color:#8bd3f5"/><stop offset="1" style="stop-color:#8ed8f8"/></linearGradient><path d="M544.56 57.881a24.139 24.139 0 0 0-5.56-10.01c-2.75-2.95-6.23-5.35-10.11-7.14-7.776-3.588-17.189-4.794-25.661-3.771a47.691 47.691 0 0 0-7.181 1.435 46.033 46.033 0 0 0-6.648 2.426c-8.18 3.73-14.85 9.75-17.9 17.35-1.4 3.6-1.87 7.55-1.42 11.4.45 3.85 1.82 7.6 4.12 10.8 2.5 3.5 5.95 6.48 10.01 8.78 4.07 2.3 8.74 3.92 13.69 4.72 5.2.8 10.55.75 15.71-.1 5.17-.85 10.14-2.5 14.59-4.9 4.2-2.25 7.85-5.2 10.7-8.57 2.85-3.38 4.9-7.18 5.9-11.13.9-3.7.77-7.6-.24-11.29zm-2.96 11.89c-2.35 7.35-8.47 13.37-16.17 17.15-7.7 3.77-16.98 5.3-25.63 3.65-4.2-.55-8.27-1.8-11.89-3.65-3.61-1.85-6.76-4.3-9.11-7.25-2.25-2.8-3.75-6.13-4.44-9.59-.68-3.46-.56-7.06.44-10.41 2.2-7.3 8.08-13.4 15.65-17.42a44.76 44.76 0 0 1 10.112-3.869c3.794-.951 7.722-1.435 11.635-1.353 3.852.081 7.69.811 11.303 2.151.376.139.744.302 1.116.453a36.126 36.126 0 0 1 3.844 1.827c3.66 2.01 6.84 4.61 9.24 7.71a23.31 23.31 0 0 1 4.46 9.89c.69 3.561.54 7.261-.56 10.711z" style="fill:url(#l)"/></g></svg>