<svg width="100" height="100" viewBox="0 0 100 100" fill="none" xmlns="http://www.w3.org/2000/svg">
<path d="M87.5325 17.3211C87.2305 16.9742 86.7972 16.7684 86.3377 16.7535C85.8799 16.712 85.4335 16.9145 85.1065 17.238L78.0516 24.2947C77.4425 24.9038 77.401 25.8762 77.9537 26.5364C83.4675 33.0955 86.502 41.4299 86.502 50.0015C86.502 58.5732 83.4654 66.9059 77.9537 73.4667C77.401 74.1252 77.4425 75.0976 78.0516 75.7083L85.1065 82.765C85.4187 83.0772 85.8401 83.2512 86.2814 83.2512C86.2996 83.2512 86.3195 83.2512 86.3377 83.2495C86.7972 83.2347 87.2305 83.0289 87.5325 82.682C95.429 73.6191 99.7777 62.0143 99.7777 50.0028C99.7777 37.9914 95.4307 26.384 87.5325 17.3211Z" fill="#0B82C6"/>
<path d="M22.0466 73.4652C16.5328 66.9062 13.4982 58.5718 13.4982 50.0001C13.4982 41.4285 16.5349 33.0958 22.0466 26.535C22.5993 25.8765 22.5578 24.9041 21.9487 24.2933L14.8933 17.2362C14.5681 16.9127 14.1183 16.7234 13.6622 16.7517C13.2026 16.7666 12.7694 16.9724 12.4674 17.3192C4.57129 26.3821 0.222168 37.987 0.222168 49.9985C0.222168 62.0099 4.57129 73.6147 12.4674 82.6777C12.7694 83.0245 13.2026 83.2303 13.6622 83.2452C13.6804 83.2469 13.7003 83.2469 13.7185 83.2469C14.1581 83.2469 14.5795 83.0728 14.8933 82.7607L21.9487 75.7036C22.5573 75.0962 22.6005 74.1238 22.0466 73.4652Z" fill="#0B82C6"/>
<path d="M24.2947 21.9489C24.9037 22.5562 25.8778 22.6011 26.5364 22.0467C33.0972 16.5346 41.4299 13.4984 50.0015 13.4984C58.5732 13.4984 66.9059 16.535 73.4667 22.0467C73.7771 22.3071 74.157 22.4351 74.5335 22.4351C74.96 22.4351 75.3848 22.2707 75.7084 21.9489L82.7634 14.8922C83.0869 14.5669 83.2644 14.1205 83.2479 13.6627C83.2313 13.2032 83.0255 12.7699 82.6786 12.4679C73.6196 4.57141 62.0147 0.22229 50.0037 0.22229C37.9926 0.22229 26.3873 4.57141 17.3261 12.4675C16.9793 12.7695 16.7734 13.2011 16.7569 13.6623C16.7404 14.1201 16.9179 14.5665 17.2414 14.8917L24.2947 21.9489Z" fill="#0B82C6"/>
<path d="M75.7071 78.0516C75.098 77.4425 74.1239 77.3976 73.4654 77.9537C66.9046 83.4658 58.5719 86.502 50.0002 86.502C41.4286 86.502 33.0959 83.4654 26.5351 77.9537C25.8765 77.3981 24.9024 77.4425 24.2934 78.0516L17.238 85.1082C16.9144 85.4335 16.737 85.8799 16.7535 86.3377C16.77 86.7972 16.9758 87.2305 17.3227 87.5325C26.3822 95.429 37.9888 99.7777 49.9985 99.7777C62.0083 99.7777 73.6149 95.4286 82.6761 87.5325C83.0229 87.2305 83.2288 86.7989 83.2453 86.3377C83.2618 85.8799 83.0843 85.4335 82.7608 85.1082L75.7071 78.0516Z" fill="#0B82C6"/>
<path d="M51.4075 22.5712C51.1038 22.09 50.5744 21.7978 50.0052 21.7961C49.4309 21.8109 48.9003 22.0866 48.5949 22.5695C48.3577 22.9443 42.6131 31.7484 28.4299 31.7484C27.9886 31.7484 27.5655 31.9225 27.255 32.2363C26.9429 32.5484 26.7705 32.9728 26.7705 33.4145L26.8319 49.6984C26.8319 58.0295 29.5632 65.8777 34.5209 71.7913C39.0111 77.1493 44.2191 79.8653 50.0002 79.8653C55.7812 79.8653 60.9897 77.1476 65.4794 71.7913C70.4371 65.8777 73.1684 58.0295 73.1684 49.7031L73.2298 33.4124C73.2315 32.9711 73.0574 32.548 72.7453 32.2342C72.4332 31.922 72.0101 31.7463 71.5705 31.7463C57.4109 31.7484 51.6612 22.971 51.4075 22.5712ZM61.3581 44.2541C61.1857 44.5247 61.0146 44.7949 60.8423 45.0639C57.693 50.0118 54.5454 54.9598 51.3961 59.9078C50.9764 60.5681 50.5567 61.2288 50.1348 61.8873C49.7499 62.493 49.3882 63.1003 48.6148 63.2362C47.3887 63.4501 46.7297 62.2291 46.1076 61.3994C45.3495 60.3889 44.591 59.3784 43.8346 58.3696C43.2704 57.6161 42.7046 56.8631 42.1388 56.108C42.104 56.0631 42.0706 56.0169 42.0359 55.972C41.4849 55.2402 41.6344 54.2 42.3679 53.6507C43.1014 53.1031 44.1416 53.2492 44.6909 53.9828L48.2286 58.6999L58.5557 42.4706C59.047 41.699 60.0723 41.4716 60.8469 41.9612C61.622 42.4558 61.8494 43.4812 61.3581 44.2541Z" fill="#0B82C6"/>
</svg>